<svg width="512" height="512" viewBox="0 0 512 512" fill="none" xmlns="http://www.w3.org/2000/svg">
<rect x="13" y="13" width="486" height="486" rx="147" fill="#3D348B" stroke="#3D348B" stroke-width="26"/>
<path d="M388.445 156.385L433.721 245.83M388.445 156.385L339.144 254.045M388.445 156.385L320.53 135.28M433.721 245.83L426.678 292.061L339.144 356.381M433.721 245.83L339.144 254.045M339.144 356.381L332.101 394.572L226.456 327.236M339.144 356.381V254.045M226.456 327.236L126.848 313.166M226.456 327.236L252.616 250.547M226.456 327.236L339.144 254.045M126.848 313.166L80.5659 213.67M126.848 313.166L252.616 250.547M80.5659 213.67L119.805 161.41M80.5659 213.67H151.87M119.805 161.41L151.87 213.67M119.805 161.41L186.211 137.792M151.87 213.67L252.616 250.547M186.211 137.792L252.616 114.174M186.211 137.792L219.413 194.17M252.616 114.174L219.413 194.17M252.616 114.174L320.53 135.28M252.616 250.547L219.413 194.17M252.616 250.547L339.144 254.045M252.616 250.547L320.53 135.28" stroke="white" stroke-width="18.6708"/>
</svg>
