<svg width="40" height="40" viewBox="0 0 40 40" fill="none" xmlns="http://www.w3.org/2000/svg">
<g id="Content">
<g id="Group 25">
<path id="Polygon 34" d="M19.7447 31.2179C19.823 31.2632 19.9196 31.2632 19.9979 31.2179L36.8628 21.481C37.0316 21.3835 37.2427 21.5054 37.2427 21.7003V29.8244C37.2427 29.9149 37.1944 29.9985 37.116 30.0437L19.998 39.9269C19.9196 39.9721 19.8231 39.9721 19.7447 39.9269L2.62663 30.0437C2.54827 29.9985 2.5 29.9149 2.5 29.8244V21.7003C2.5 21.5054 2.71105 21.3835 2.87989 21.481L19.7447 31.2179Z" fill="#04151F"/>
<path id="Subtract" fill-rule="evenodd" clip-rule="evenodd" d="M20.2512 0.10179C20.0161 -0.0339302 19.7265 -0.0339301 19.4914 0.101791L2.87988 9.6925C2.64481 9.82822 2.5 10.079 2.5 10.3505V18.0136C2.5 18.285 2.64481 18.5359 2.87988 18.6716L10.8111 23.2507C11.0433 23.3847 11.329 23.3865 11.5628 23.2553L19.4995 18.8014C19.7304 18.6718 20.0122 18.6718 20.2431 18.8014L28.1798 23.2553C28.4137 23.3865 28.6993 23.3847 28.9315 23.2507L36.8628 18.6716C37.0978 18.5359 37.2427 18.285 37.2427 18.0136V10.3505C37.2427 10.079 37.0978 9.82822 36.8628 9.6925L20.2512 0.10179ZM20.125 2.72632C19.9681 2.63556 19.7746 2.63562 19.6177 2.72647L5.04908 11.162C4.9648 11.2108 4.96486 11.3325 5.04918 11.3812L11.0608 14.8545C11.1382 14.8993 11.2335 14.8999 11.3114 14.8561L19.6234 10.1916C19.7774 10.1052 19.9652 10.1052 20.1192 10.1916L28.4312 14.8561C28.5092 14.8999 28.6044 14.8993 28.6818 14.8546L34.7052 11.3765C34.7896 11.3278 34.7896 11.206 34.7052 11.1572L20.125 2.72632Z" fill="#04151F"/>
</g>
</g>
</svg>
